<svg xmlns="http://www.w3.org/2000/svg" viewBox="-40 205 1105 815"><path d="M87.5 894.5q-8.5 3-15.75-1T62.5 881q-3-13-4.5-29.75t-1.5-36.75q0-13 .5-26.25T59.5 764q1.5-8.5 7.75-13.5T81.5 747q7.5 1.5 11.75 7.75t3.25 13.75q-2 11-2.25 22.75T94 814.5q0 36.5 5 58.5 3.5 16.5-11.5 21.5M258 560q-12.5 0-19.5-7t-7-20.5V503h-29q-27 0-27-27 0-27.5 27-27.5H232V420q0-27.5 27.5-27.5 27 0 27 28v29H315q27.5 0 27.5 27.5 0 27-27.5 27h-29v29q0 27-28 27m164 134.5q-29 0-50-20.75T351 624q0-29.5 20.75-50.25T422 553t50.25 20.75T493 624q0 29-21 49.75t-50 20.75m0-40q12.5 0 21.75-9.25T453 624q0-13-9-22t-22-9-22 9-9 22q0 12.5 9.25 21.5t21.75 9M102 980q28.5 0 48.25-6.75t36.75-27.5 37.25-62.5T273.5 772q49-7 110.25-10.75T512 757.5t128.25 3.75T750.5 772Q780 841.5 800 883.25t37 62.5 36.75 27.5T922 980q55.5 0 79-28.75c15.67-19.167 23.5-51.083 23.5-95.75 0-32-3.83-75.25-11.5-129.75s-18.833-114.583-33.5-180.25q-16-70.5-38.25-116.25T885 357t-84.25-39-121-15.75T512 299q-96.5 0-167.5 3.25T223.25 318 139 357t-56.25 72.25T44.5 545.5Q22.5 644 11 725.75T-.5 855.5q0 67 23.5 95.75T102 980m500-285.5q-29 0-50-20.75T531 624q0-29.5 21-50.25T602 553q29.5 0 50.25 20.75T673 624q0 29-20.75 49.75T602 694.5m0-40q13 0 22-9t9-21.5q0-13-9-22t-22-9q-12.5 0-21.75 9T571 624q0 12 9.25 21.25T602 654.5M897 897q-6.5 5-14.75 3.75T869.5 893q-16-23.5-29.75-50t-20.25-49.5q-2.5-9.5 1-16.75t12.5-9.25q8-2 14 1.75t8 10.75q7 23 19.25 47.75T900 871.5q10.5 15-3 25.5M763.5 579q-14 0-23.75-9.75T730 546.5q0-13.5 10-23.5t23.5-10q14 0 23.5 9.75t9.5 23.75q0 13.5-9.5 23t-23.5 9.5m-70-72.5q-13 0-22.75-9.75T661 473q0-13 9.75-22.75t22.75-9.75q14 0 23.75 9.75T727 473q0 14-9.75 23.75t-23.75 9.75m142 7q-13 0-23-10t-10-23q0-13.5 9.75-23.25t23.25-9.75q14 0 23.75 9.75T869 480.5t-9.75 23.25-23.75 9.75m-69.5-73q-13 0-22.75-9.75t-9.75-23.25q0-13 9.75-23t22.75-10q13.5 0 23.25 10t9.75 23q0 13.5-9.75 23.25T766 440.5m-806.5 415q0-40 6.5-94.75t17.25-113.25 22.25-110q19-83.5 47.5-136t72-82.5q5.5-56.5 40.25-85.25T259 205q29.5 0 42.25 13.25T319 264q41.5-3 89.25-4T512 259t104 1 89 4q5.5-32.5 18.25-45.75T765 205q59.5 0 94 28.75T899 319q43.5 30 72 82.5c19 35 34.83 80.333 47.5 136q12 51.5 22.5 110c7 39 12.67 76.75 17 113.25s6.5 68.083 6.5 94.75c0 55.333-11.67 96.583-35 123.75-23.33 27.17-59.167 40.75-107.5 40.75q-40.5 0-67.75-10.5T806.5 975t-39.75-65-44.25-101.5q-41.5-5.5-93.75-8.25T512 797.5t-116.75 2.75-93.75 8.25Q277 869 257.5 910t-40 65-47.75 34.5T102 1020c-48.333 0-84.167-13.58-107.5-40.75q-35-40.75-35-123.75"/></svg>