<svg width="1em" height="1em" viewBox="0 0 32 32" xmlns="http://www.w3.org/2000/svg" aria-hidden="true">
	<path d="M2.438 25.688c.468.208.963.312 1.484.312H18v-2H4a2.41 2.41 0 01-.797-.156 1.704 1.704 0 01-.625-.422 2.207 2.207 0 01-.422-.64C2.052 22.541 2 22.281 2 22V8c-.01-.27.042-.531.156-.781.115-.25.26-.464.438-.64.177-.178.385-.319.625-.423.24-.104.5-.156.781-.156h24c.27 0 .531.052.781.156.25.104.464.25.64.438.178.187.319.4.423.64A1.9 1.9 0 0130 8v4.402a6.2 6.2 0 012 1.237V7.922a3.84 3.84 0 00-.328-1.5 4.12 4.12 0 00-.86-1.25 4.12 4.12 0 00-1.25-.86A3.614 3.614 0 0028.078 4H3.922a3.84 3.84 0 00-1.5.328 4.12 4.12 0 00-1.25.86 4.12 4.12 0 00-.86 1.25A3.614 3.614 0 000 7.921v14.156c.01.531.12 1.031.328 1.5.208.469.495.886.86 1.25a4.12 4.12 0 001.25.86z" fill="#FFFFFF">
	</path>
	<path d="M6.297 20.297A.961.961 0 017 20h11v2H7a.961.961 0 01-.703-.297A.961.961 0 016 21c0-.27.099-.505.297-.703zM24.5 12c.417 0 .77-.146 1.063-.438.291-.291.437-.645.437-1.062 0-.417-.146-.77-.438-1.063A1.447 1.447 0 0024.5 9c-.417 0-.77.146-1.063.438A1.446 1.446 0 0023 10.5c0 .417.146.77.438 1.063.291.291.645.437 1.062.437zM5.438 9.438A1.446 1.446 0 005 10.5c0 .417.146.77.438 1.063.291.291.645.437 1.062.437.417 0 .77-.146 1.063-.438.291-.291.437-.645.437-1.062 0-.417-.146-.77-.438-1.063A1.447 1.447 0 006.5 9c-.417 0-.77.146-1.063.438zM11.438 9.438A1.446 1.446 0 0011 10.5c0 .417.146.77.438 1.063.291.291.645.437 1.062.437.417 0 .77-.146 1.063-.438.291-.291.437-.645.437-1.062 0-.417-.146-.77-.438-1.063A1.447 1.447 0 0012.5 9c-.417 0-.77.146-1.063.438zM17.438 9.438A1.446 1.446 0 0017 10.5c0 .417.146.77.438 1.063.291.291.645.437 1.062.437.417 0 .77-.146 1.063-.438.291-.291.437-.645.437-1.062 0-.417-.146-.77-.438-1.063A1.447 1.447 0 0018.5 9c-.417 0-.77.146-1.063.438zM9.438 15.438A1.447 1.447 0 009 16.5c0 .417.146.77.438 1.063.291.291.645.437 1.062.437.417 0 .77-.146 1.063-.438.291-.291.437-.645.437-1.062 0-.417-.146-.77-.438-1.063A1.446 1.446 0 0010.5 15c-.417 0-.77.146-1.063.438zM15.438 15.438A1.446 1.446 0 0015 16.5c0 .417.146.77.438 1.063.291.291.645.437 1.062.437.417 0 .77-.146 1.063-.438.291-.291.437-.645.437-1.062 0-.417-.146-.77-.438-1.063A1.446 1.446 0 0016.5 15c-.417 0-.77.146-1.063.438z" fill="#FFFFFF">
	</path>
	<path fill-rule="evenodd" clip-rule="evenodd" d="M20 18.2a4.2 4.2 0 014.2-4.2h3.6a4.2 4.2 0 014.2 4.2V26a6 6 0 01-12 0v-7.8zm4.2-2.2a2.2 2.2 0 00-2.2 2.2V26a4 4 0 008 0v-7.8a2.2 2.2 0 00-2.2-2.2H27v6a1 1 0 11-2 0v-6h-.8z" fill="#FFFFFF">
	</path>
</svg>