<svg width="48" height="48" viewBox="0 0 48 48" fill="none" xmlns="http://www.w3.org/2000/svg">
<rect width="48" height="48" rx="24" fill="#090909" fill-opacity="0.55"/>
<path d="M30 24L18.5 16.5V31.5L30 24Z" fill="#FFFCF2"/>
<path fill-rule="evenodd" clip-rule="evenodd" d="M18.4049 15.8279C19.0881 15.5203 19.8589 15.6812 20.475 16.0575L20.4996 16.0725L29.425 22.4101C30.0523 22.769 30.6654 23.3361 30.6666 24.1573C30.6677 24.9722 30.0601 25.5664 29.4328 25.9629L20.5771 31.9354L20.5391 31.9556C19.8982 32.2976 19.1109 32.5066 18.4077 32.1444C17.683 31.7712 17.4194 30.9892 17.3727 30.233L17.3712 30.2086L17.3337 17.7259C17.3186 16.898 17.6701 16.1588 18.4049 15.8279ZM19.0516 17.388C19.032 17.4242 18.9963 17.517 19.0002 17.6988L19.0003 17.7064L19.0378 30.1531C19.0634 30.5177 19.1479 30.635 19.1735 30.6622C19.2058 30.6684 19.363 30.6873 19.7188 30.5039L28.523 24.5662L28.5346 24.5589C28.7673 24.4128 28.8954 24.2905 28.9589 24.2078C28.9726 24.19 28.9821 24.1757 28.9887 24.1646C28.9844 24.1585 28.9791 24.1514 28.9724 24.1433C28.9174 24.0757 28.7987 23.9687 28.572 23.8423L28.5322 23.8202L19.5842 17.4666C19.2875 17.2924 19.1167 17.3352 19.0892 17.3476C19.0801 17.3517 19.0681 17.3576 19.0516 17.388Z" fill="#FFFCF2"/>
</svg>
